<?xml version="1.0" standalone="no"?>
<!DOCTYPE svg PUBLIC "-//W3C//DTD SVG 20010904//EN"
 "http://www.w3.org/TR/2001/REC-SVG-20010904/DTD/svg10.dtd">
<svg version="1.0" xmlns="http://www.w3.org/2000/svg"
 width="1024.000000pt" height="1024.000000pt" viewBox="0 0 1024.000000 1024.000000"
 preserveAspectRatio="xMidYMid meet">
<metadata>
Created by potrace 1.14, written by Peter Selinger 2001-2017
</metadata>
<g transform="translate(0.000000,1024.000000) scale(0.100000,-0.100000)"
fill="#000000" stroke="none">
<path d="M2102 6622 l-1503 -1506 1508 -1508 1508 -1508 748 748 c411 411 750
749 753 752 3 2 343 -334 757 -748 l752 -752 1508 1508 1508 1508 -1507 1507
-1508 1508 -53 -53 c-30 -29 -369 -368 -754 -752 l-699 -699 -749 749 c-412
411 -753 749 -757 750 -5 1 -685 -676 -1512 -1504z"/>
</g>
</svg>
